<?xml version="1.0" standalone="no"?>
<!DOCTYPE svg PUBLIC "-//W3C//DTD SVG 20010904//EN"
 "http://www.w3.org/TR/2001/REC-SVG-20010904/DTD/svg10.dtd">
<svg version="1.0" xmlns="http://www.w3.org/2000/svg"
 width="959.000000pt" height="959.000000pt" viewBox="0 0 959.000000 959.000000"
 preserveAspectRatio="xMidYMid meet">
<metadata>
Created by potrace 1.14, written by Peter Selinger 2001-2017
</metadata>
<g transform="translate(0.000000,959.000000) scale(0.100000,-0.100000)"
fill="#000000" stroke="none">
<path d="M5395 8181 c-93 -9 -289 -45 -359 -66 -26 -8 -59 -15 -72 -15 -13 0
-24 -3 -24 -8 0 -4 -24 -13 -53 -20 -29 -7 -91 -28 -137 -48 -47 -20 -112 -47
-145 -61 -33 -13 -64 -30 -70 -36 -5 -7 -23 -18 -40 -25 -37 -17 -131 -84
-196 -139 -27 -24 -53 -43 -57 -43 -4 0 -24 -16 -44 -35 -20 -19 -39 -35 -42
-35 -3 0 -14 -8 -24 -17 -87 -84 -216 -172 -377 -258 -49 -26 -110 -59 -135
-73 -60 -33 -245 -130 -295 -155 -22 -10 -47 -25 -55 -32 -8 -7 -78 -45 -155
-85 -244 -128 -335 -191 -465 -325 -92 -94 -111 -116 -140 -166 -14 -23 -29
-47 -35 -53 -17 -20 -74 -138 -95 -201 -63 -180 -65 -431 -5 -657 20 -78 117
-266 172 -333 66 -80 100 -116 170 -177 46 -39 83 -77 83 -84 0 -6 -19 -29
-42 -50 -121 -109 -190 -247 -220 -434 -13 -88 -6 -386 10 -402 7 -7 12 -20
12 -29 0 -87 144 -361 247 -469 13 -14 36 -38 51 -55 35 -37 152 -132 212
-171 25 -16 47 -31 50 -34 15 -15 216 -117 263 -133 22 -8 22 -31 0 -57 -12
-14 -30 -20 -59 -20 -41 0 -57 -8 -161 -82 -74 -53 -153 -68 -366 -68 -165 0
-192 -2 -225 -19 -39 -20 -122 -106 -122 -127 0 -34 -30 -44 -130 -44 l-98 0
-16 34 c-9 19 -16 43 -16 53 0 11 -7 28 -15 39 -8 10 -15 24 -15 31 0 22 -99
179 -144 228 -25 28 -44 55 -43 60 2 6 15 13 28 17 107 30 163 51 177 64 110
101 147 157 168 255 20 95 11 202 -23 284 -40 96 -40 94 22 222 95 198 114
244 142 358 36 142 27 185 -47 240 -28 21 -45 25 -100 25 -74 0 -85 -6 -174
-89 -53 -51 -152 -174 -169 -211 -4 -8 -20 -35 -37 -60 -16 -25 -39 -64 -51
-87 -35 -67 -49 -57 -49 35 0 42 -5 167 -11 277 -10 172 -14 206 -33 240 -24
46 -86 85 -134 85 -33 0 -172 -63 -172 -79 0 -4 -10 -19 -23 -33 -32 -36 -49
-68 -58 -108 -5 -19 -17 -75 -28 -125 -11 -49 -20 -109 -21 -133 0 -24 -4 -51
-9 -60 -7 -14 -19 -79 -20 -118 -1 -7 -27 -9 -76 -6 -97 5 -163 -16 -201 -64
-30 -37 -65 -44 -98 -19 -23 17 -102 20 -140 5 -36 -13 -87 -67 -109 -113 -21
-47 -22 -110 -2 -218 17 -91 35 -137 72 -185 20 -27 23 -42 23 -113 0 -45 7
-113 15 -150 13 -56 24 -77 63 -120 26 -29 69 -65 97 -79 55 -30 51 -20 86
-217 18 -105 103 -337 149 -405 9 -14 42 -63 73 -110 31 -47 77 -108 104 -135
75 -78 181 -165 202 -165 5 0 11 -4 13 -8 12 -29 190 -104 318 -134 47 -11 99
-24 115 -30 17 -5 102 -12 190 -14 88 -3 169 -7 180 -9 11 -3 43 -25 70 -50
l50 -46 65 4 c36 3 86 9 111 15 102 24 307 92 349 116 56 32 80 33 81 4 0 -13
1 -74 2 -136 2 -88 5 -115 17 -122 9 -6 504 -10 1290 -10 1080 0 1279 2 1296
14 16 12 123 15 607 18 639 3 615 1 601 58 -3 14 -16 47 -30 73 -13 27 -24 55
-24 63 0 8 -4 14 -10 14 -5 0 -10 8 -10 19 0 10 -7 24 -15 31 -8 6 -17 22 -21
33 -3 12 -17 36 -30 54 -13 17 -24 34 -24 37 0 2 -19 32 -42 66 -24 33 -57 82
-75 108 -40 60 -65 91 -130 161 -29 31 -53 59 -53 63 0 4 -58 58 -130 119 -96
82 -130 117 -130 134 0 41 -74 111 -164 155 -46 22 -88 40 -94 40 -14 0 -34
35 -25 44 3 3 22 6 42 6 20 1 47 7 61 15 14 8 40 14 58 15 17 0 32 4 32 10 0
5 18 13 40 16 22 4 40 10 40 15 0 5 8 9 18 9 29 0 104 33 187 83 120 72 147
92 273 210 53 49 54 49 103 43 27 -4 73 -10 102 -13 29 -4 106 -7 172 -7 129
0 222 21 313 69 71 38 177 126 213 178 19 27 39 54 44 60 21 24 58 114 80 195
21 75 50 120 78 122 29 1 97 142 127 266 4 18 10 36 13 41 3 5 19 88 36 184
25 150 30 211 36 439 6 270 -6 660 -25 805 -5 44 -17 152 -26 240 -8 88 -19
178 -24 200 -5 22 -16 76 -25 120 -10 44 -23 100 -30 125 -7 25 -19 74 -25
110 -7 36 -19 72 -26 81 -8 8 -14 22 -14 30 0 17 -109 278 -125 299 -6 8 -23
38 -37 65 -59 117 -170 282 -245 367 -83 93 -193 194 -288 264 -55 41 -109 81
-120 89 -10 8 -25 15 -32 15 -7 0 -13 3 -13 8 0 4 -10 12 -23 18 -12 6 -51 26
-87 46 -55 31 -140 70 -285 133 -16 7 -48 18 -70 25 -22 6 -49 15 -60 19 -21
8 -98 31 -172 50 -138 37 -673 62 -878 42z m-1125 -1724 c0 -8 -21 -28 -48
-45 -26 -17 -68 -49 -94 -71 -25 -23 -51 -41 -57 -41 -6 0 -11 -3 -11 -8 0 -4
-52 -46 -116 -92 -64 -47 -125 -93 -137 -103 -11 -9 -40 -32 -63 -50 -45 -33
-58 -52 -48 -68 9 -15 32 -11 178 35 78 25 188 59 246 76 58 17 116 36 129 41
14 6 63 19 110 29 47 10 127 28 176 40 50 12 108 26 130 30 22 4 76 15 120 25
44 9 109 20 145 25 36 5 99 14 140 20 335 48 660 62 795 35 154 -31 185 -39
185 -47 0 -4 8 -8 18 -8 24 0 132 -47 217 -94 131 -73 335 -225 335 -250 0 -3
12 -18 26 -33 49 -52 91 -133 70 -133 -5 0 -73 28 -113 46 -41 19 -60 18 -72
-4 -14 -27 10 -67 79 -132 61 -58 120 -127 120 -141 0 -15 -32 -10 -90 12 -30
11 -69 25 -87 30 -18 5 -45 16 -60 24 -48 25 -83 13 -83 -27 0 -11 84 -104
192 -213 210 -214 224 -230 207 -240 -11 -7 -43 4 -159 57 -188 86 -242 96
-248 47 -3 -27 21 -64 208 -308 70 -92 75 -128 20 -141 -40 -9 -33 -26 27 -65
80 -52 84 -55 142 -102 28 -23 57 -40 65 -37 7 3 20 22 29 43 39 87 137 166
261 209 121 42 261 19 372 -62 161 -117 250 -400 200 -636 -62 -297 -160 -444
-361 -544 -127 -64 -238 -83 -384 -67 -58 6 -120 14 -138 17 -32 5 -37 19 -16
45 26 33 41 76 32 90 -7 11 -15 7 -42 -22 -17 -20 -43 -51 -57 -70 -39 -52
-127 -135 -215 -202 -44 -34 -81 -65 -83 -69 -2 -4 -8 -8 -13 -8 -5 0 -26 -10
-47 -23 -20 -13 -64 -34 -97 -48 -33 -13 -62 -26 -65 -30 -5 -6 -18 -10 -190
-55 -130 -35 -163 -43 -169 -42 -3 1 -24 -4 -46 -10 -22 -6 -105 -18 -185 -27
-80 -8 -192 -20 -250 -26 -145 -16 -746 -6 -970 15 -279 26 -369 40 -565 91
-55 14 -118 30 -140 36 -22 5 -54 16 -72 24 -17 8 -38 15 -47 15 -9 0 -24 4
-34 9 -35 18 -93 41 -102 41 -10 0 -170 72 -205 92 -11 6 -41 22 -66 35 -26
12 -52 30 -59 38 -7 8 -16 15 -21 15 -18 0 -137 94 -219 174 -96 93 -183 217
-231 327 -17 41 -35 83 -40 94 -46 102 -67 288 -50 439 17 155 25 183 90 315
37 75 182 221 220 221 6 0 11 3 11 8 0 18 133 61 192 62 21 0 29 6 34 27 8 32
-3 398 -16 538 -5 55 -9 159 -10 232 l0 132 133 64 c72 35 150 70 172 77 22 7
45 16 50 20 6 4 21 11 35 15 14 4 48 18 75 30 58 27 140 55 160 55 7 0 15 3
17 8 3 7 171 73 308 119 41 14 95 34 120 44 54 22 100 25 100 6z m-2544 -1577
c16 -6 36 -20 43 -33 17 -26 40 -308 41 -489 l0 -117 -27 -15 c-38 -19 -98
-79 -115 -113 -20 -40 -22 -131 -4 -173 8 -19 26 -48 40 -63 35 -38 33 -47
-14 -47 -22 0 -40 -4 -40 -9 0 -5 -15 -12 -33 -15 -19 -3 -47 -20 -64 -39 -49
-53 -70 -168 -31 -175 12 -2 19 6 23 32 15 77 32 109 71 132 35 22 51 24 157
24 64 0 117 2 117 4 0 20 -19 39 -63 62 -66 34 -75 41 -103 86 -44 69 -25 173
41 228 71 59 219 49 321 -21 65 -44 131 -114 146 -155 7 -19 15 -34 18 -34 12
0 40 -77 53 -148 13 -68 10 -130 -8 -195 -40 -138 -155 -233 -316 -260 -67
-11 -74 -15 -77 -37 -2 -18 7 -35 33 -60 19 -18 35 -40 35 -47 0 -7 4 -13 9
-13 22 0 114 -148 146 -235 10 -27 22 -54 27 -59 4 -6 8 -25 8 -43 0 -21 6
-36 19 -42 10 -6 91 -12 180 -13 149 -3 162 -5 182 -25 30 -30 39 -89 46 -292
4 -142 2 -196 -13 -285 -26 -157 -19 -151 -206 -150 -281 1 -464 40 -668 140
-62 31 -194 130 -251 190 -64 69 -179 240 -216 322 -66 149 -107 290 -119 407
l-7 65 61 0 c68 0 92 6 92 25 0 17 -23 25 -76 25 -53 0 -133 18 -154 34 -8 7
-27 18 -42 25 -38 19 -83 79 -102 134 -17 52 -22 192 -7 202 5 3 29 -1 53 -10
61 -21 83 -19 159 16 l68 32 50 -17 c95 -31 176 -12 240 55 51 55 89 222 73
324 -10 63 -5 85 17 85 23 0 31 9 24 26 -3 8 -16 14 -30 14 -34 0 -133 103
-133 139 0 34 28 218 46 301 41 186 78 250 168 291 47 21 71 23 112 9z m674
-185 c83 -43 80 -114 -14 -373 -24 -64 -125 -262 -134 -262 -5 0 -39 29 -75
65 -64 63 -143 109 -197 117 -51 7 -36 48 72 205 76 111 166 212 218 242 41
25 90 27 130 6z m-1080 -461 c42 -9 99 -66 130 -129 58 -118 28 -315 -59 -399
-42 -40 -119 -47 -180 -17 -50 26 -113 116 -132 189 -31 118 -14 257 40 315
38 41 117 57 201 41z m-326 -97 c25 -17 26 -19 19 -106 -4 -61 -2 -90 6 -95 6
-4 11 -20 11 -35 0 -36 16 -84 46 -142 32 -61 30 -75 -8 -99 -50 -30 -110 -26
-175 11 -99 57 -127 130 -126 331 0 88 13 115 65 142 41 21 125 17 162 -7z
m2331 -1044 c-4 -10 -10 -30 -13 -46 -2 -15 -8 -30 -13 -33 -5 -3 -9 -12 -9
-21 0 -8 -6 -29 -14 -46 -17 -37 -34 -94 -46 -152 -5 -22 -13 -60 -20 -85 -31
-127 -45 -231 -59 -435 l-7 -100 -17 35 c-44 93 -145 155 -162 99 -5 -15 5
-31 43 -69 62 -61 76 -112 40 -144 -20 -18 -103 -51 -148 -58 -8 -2 -18 -6
-21 -11 -8 -11 -196 -59 -252 -64 -27 -3 -53 -1 -57 3 -5 5 4 30 20 57 17 26
27 47 24 47 -4 0 -2 6 4 13 35 42 46 596 12 642 -4 6 -10 24 -14 40 -4 17 -28
49 -53 72 -45 42 -45 43 -29 68 9 14 20 24 25 22 5 -1 16 6 23 16 16 22 119
37 164 25 16 -4 95 -4 175 1 162 10 188 18 299 95 68 47 119 61 105 29z m820
-53 c257 -46 577 -64 980 -58 168 3 305 2 305 -3 0 -18 -57 -59 -139 -99 -47
-24 -95 -48 -106 -53 -11 -6 -38 -14 -60 -18 -22 -4 -67 -13 -100 -20 -95 -20
-460 -17 -560 5 -44 9 -93 24 -108 32 -16 8 -37 14 -47 14 -9 0 -23 7 -30 15
-7 8 -19 15 -26 15 -16 0 -51 18 -72 38 -7 6 -18 12 -23 12 -5 0 -36 26 -70
59 -64 61 -71 89 -20 76 14 -3 49 -10 76 -15z m-35 -166 c0 5 6 3 13 -3 23
-18 126 -71 140 -71 7 0 18 -5 25 -12 14 -14 80 -38 108 -38 12 0 39 -7 60
-17 67 -28 577 -23 633 6 11 6 31 11 45 11 13 0 54 14 89 30 36 17 72 30 81
30 9 0 16 5 16 11 0 5 14 15 30 20 17 6 30 15 30 20 0 5 10 9 23 9 21 -1 22
-1 3 -15 -11 -8 -21 -22 -22 -32 -2 -9 -7 -19 -13 -22 -14 -9 -121 -154 -121
-164 0 -4 -9 -20 -21 -36 -11 -15 -22 -34 -23 -42 -2 -8 -6 -23 -10 -34 -5
-11 -12 -32 -18 -47 -13 -36 -31 -41 -81 -23 -23 8 -51 15 -62 15 -12 0 -25 4
-30 9 -6 5 -84 23 -175 40 -91 17 -187 36 -215 43 -32 7 -180 13 -414 14 -200
2 -366 6 -370 10 -9 9 -1 168 8 174 5 3 12 28 16 55 11 70 39 131 77 165 l32
30 73 -72 c40 -40 73 -69 73 -64z m2127 -136 c12 -13 37 -34 56 -48 20 -14 41
-35 48 -47 7 -13 18 -23 24 -23 15 0 85 -70 150 -149 28 -34 60 -73 73 -87 12
-14 22 -29 22 -33 0 -5 10 -19 23 -32 27 -28 87 -116 87 -128 0 -5 13 -24 30
-42 16 -19 33 -43 36 -54 3 -11 14 -29 23 -40 9 -11 23 -38 30 -60 8 -22 22
-51 32 -64 24 -30 24 -48 1 -60 -12 -6 -198 -11 -483 -11 -725 -2 -666 -4
-675 23 -10 32 -5 230 6 241 6 6 10 18 10 27 0 9 13 41 28 71 16 29 32 62 35
73 4 11 13 29 20 40 6 11 23 38 37 60 50 82 143 196 171 211 16 8 29 20 29 27
1 6 11 20 23 29 12 10 44 36 72 58 27 22 55 40 61 40 5 0 20 -10 31 -22z
m-2644 -267 c116 -50 164 -202 96 -305 -32 -48 -67 -72 -129 -89 -73 -19 -166
-1 -214 41 -53 47 -71 159 -38 242 27 69 34 78 87 104 62 31 136 33 198 7z
m1921 -247 c72 -49 108 -182 70 -257 -40 -77 -85 -101 -186 -99 -109 2 -150
15 -197 64 -53 57 -68 112 -46 178 32 96 103 138 235 139 76 1 90 -2 124 -25z"/>
<path d="M3403 5664 c2 -25 14 -59 26 -75 26 -34 27 -54 4 -64 -27 -12 -54 -6
-89 22 -30 22 -33 31 -36 81 -3 49 -6 57 -23 57 -17 0 -20 -8 -23 -58 -3 -55
-1 -62 34 -104 41 -50 36 -67 -14 -57 -24 5 -40 19 -64 55 -30 47 -68 66 -68
34 0 -28 35 -83 68 -105 37 -26 39 -39 13 -89 -39 -75 -45 -114 -28 -181 28
-112 94 -175 224 -212 112 -31 181 -34 213 -7 21 17 25 31 28 89 5 80 -6 105
-54 125 -50 21 -42 44 24 65 30 10 59 23 65 29 19 19 14 150 -6 189 -17 30
-17 33 -1 39 42 16 154 -31 223 -93 40 -36 52 -56 71 -114 33 -104 30 -174
-12 -232 -10 -14 -10 -20 0 -30 9 -9 17 -7 37 12 41 39 51 130 24 239 -24 93
-58 145 -129 192 -94 62 -155 79 -280 79 l-109 0 -35 44 c-20 23 -36 51 -36
60 0 27 -19 56 -37 56 -13 0 -15 -8 -10 -46z"/>
<path d="M5699 5583 c-1 -10 0 -26 1 -37 2 -20 -36 -100 -54 -116 -7 -5 -27
-5 -51 0 -62 15 -234 12 -286 -4 -50 -15 -108 -49 -150 -87 -30 -27 -79 -115
-79 -141 0 -9 -4 -20 -10 -23 -16 -10 -12 -99 7 -167 33 -120 141 -191 293
-192 81 -1 123 16 150 62 32 54 24 101 -22 131 -21 13 -38 30 -38 37 0 8 17
22 39 33 71 37 79 121 21 235 -16 32 -30 63 -30 67 0 21 99 7 184 -25 114 -43
174 -93 215 -181 25 -53 31 -78 31 -133 0 -37 -4 -73 -9 -81 -13 -20 -1 -52
18 -49 9 2 17 15 19 33 2 17 8 34 13 39 23 24 -1 155 -43 239 l-19 38 56 53
c47 44 56 58 53 81 -4 40 -24 42 -44 3 -18 -37 -57 -74 -85 -83 -18 -6 -79 22
-79 37 0 4 20 27 44 51 46 44 61 85 54 143 -2 21 -8 29 -23 29 -17 0 -21 -8
-25 -54 -5 -49 -10 -58 -50 -93 -47 -39 -86 -49 -96 -23 -4 8 1 26 9 38 26 39
27 157 2 157 -8 0 -16 -8 -16 -17z"/>
<path d="M4235 4955 c-16 -8 -42 -19 -58 -25 -15 -5 -30 -17 -34 -26 -10 -28
17 -33 66 -11 114 51 286 8 353 -89 71 -101 98 -122 98 -75 0 30 -78 136 -123
169 -89 64 -232 91 -302 57z"/>
<path d="M3310 4860 c-76 -10 -143 -45 -165 -86 -10 -19 -22 -34 -26 -34 -31
0 -51 -163 -30 -236 11 -37 77 -127 100 -135 9 -3 34 -13 56 -24 100 -46 288
1 318 79 10 25 58 15 106 -22 76 -58 219 -129 351 -174 122 -42 139 -47 265
-73 99 -20 503 -55 645 -55 92 0 369 28 447 46 58 12 230 67 271 85 73 33 98
34 124 7 49 -51 97 -72 176 -75 62 -2 81 1 124 23 101 51 144 114 155 228 11
117 -53 228 -157 272 -64 27 -171 25 -228 -5 -124 -64 -175 -176 -148 -326 7
-38 5 -41 -27 -63 -38 -25 -196 -69 -297 -82 -36 -5 -94 -13 -130 -19 -99 -16
-540 -14 -694 4 -287 33 -567 99 -686 160 -16 8 -36 15 -45 15 -22 0 -162 96
-179 123 -9 14 -14 51 -14 105 0 75 -3 88 -28 123 -49 71 -96 111 -154 130
-30 10 -59 18 -65 17 -5 0 -35 -4 -65 -8z"/>
<path d="M7202 4523 c-11 -10 -44 -53 -73 -96 -30 -43 -60 -87 -68 -98 -14
-20 -9 -49 9 -49 6 0 18 9 27 20 21 24 46 26 63 5 7 -8 16 -15 21 -15 24 0 59
-54 65 -100 7 -57 25 -87 43 -75 20 12 4 110 -27 161 -15 24 -39 48 -54 55
-14 6 -34 19 -43 29 -16 17 -14 21 21 69 21 28 44 51 50 51 7 0 39 -27 72 -60
41 -41 62 -70 66 -93 4 -19 15 -42 26 -52 19 -17 20 -17 26 0 9 22 -25 124
-48 147 -32 32 -22 45 44 54 48 7 64 13 66 27 3 17 -5 18 -100 16 -57 -1 -116
4 -131 10 -35 14 -31 14 -55 -6z"/>
</g>
</svg>
